HIERARCHY
ROOT Hips
{
    OFFSET 0.000000 0.000000 0.000000
    CHANNELS 6 Xposition Yposition Zposition Zrotation Xrotation Yrotation
    JOINT Spine
    {
        OFFSET -0.000000 7.246840 0.000000
        CHANNELS 3 Zrotation Xrotation Yrotation
        JOINT Spine1
        {
            OFFSET -0.000000 20.289354 0.000000
            CHANNELS 3 Zrotation Xrotation Yrotation
            JOINT Neck
            {
                OFFSET -0.000000 20.206032 1.836912
                CHANNELS 3 Zrotation Xrotation Yrotation
                JOINT Head
                {
                    OFFSET -0.000000 12.372654 -1.767522
                    CHANNELS 3 Zrotation Xrotation Yrotation
                    End Site
                    {
                        OFFSET -0.000000 22.094025 0.000000
                    }
                }
            }
            JOINT LeftShoulder
            {
                OFFSET 3.465871 17.201674 -0.568930
                CHANNELS 3 Zrotation Xrotation Yrotation
                JOINT LeftArm
                {
                    OFFSET 14.070313 0.000000 0.000000
                    CHANNELS 3 Zrotation Xrotation Yrotation
                    JOINT LeftForeArm
                    {
                        OFFSET 26.549477 0.000000 0.000000
                        CHANNELS 3 Zrotation Xrotation Yrotation
                        JOINT LeftHand
                        {
                            OFFSET 18.880413 0.000000 0.000000
                            CHANNELS 3 Zrotation Xrotation Yrotation
                            End Site
                            {
                                OFFSET 13.256415 0.000000 0.000000
                            }
                        }
                    }
                }
            }
            JOINT RightShoulder
            {
                OFFSET -3.526370 17.201674 -0.568930
                CHANNELS 3 Zrotation Xrotation Yrotation
                JOINT RightArm
                {
                    OFFSET -14.070313 0.000000 0.000000
                    CHANNELS 3 Zrotation Xrotation Yrotation
                    JOINT RightForeArm
                    {
                        OFFSET -26.549477 0.000000 0.000000
                        CHANNELS 3 Zrotation Xrotation Yrotation
                        JOINT RightHand
                        {
                            OFFSET -18.880413 0.000000 0.000000
                            CHANNELS 3 Zrotation Xrotation Yrotation
                            End Site
                            {
                                OFFSET -13.256415 0.000000 0.000000
                            }
                        }
                    }
                }
            }
        }
    }
    JOINT LeftUpLeg
    {
        OFFSET 8.837609 0.000000 0.000000
        CHANNELS 3 Zrotation Xrotation Yrotation
        JOINT LeftLeg
        {
            OFFSET -0.000000 -41.345005 0.000000
            CHANNELS 3 Zrotation Xrotation Yrotation
            JOINT LeftFoot
            {
                OFFSET -0.000000 -35.500874 0.000000
                CHANNELS 3 Zrotation Xrotation Yrotation
                JOINT LeftToeBase
                {
                    OFFSET -0.000000 -5.744446 13.256415
                    CHANNELS 3 Zrotation Xrotation Yrotation
                    End Site
                    {
                        OFFSET -0.000000 0.000000 3.535044
                    }
                }
            }
        }
    }
    JOINT RightUpLeg
    {
        OFFSET -8.837609 0.000000 0.000000
        CHANNELS 3 Zrotation Xrotation Yrotation
        JOINT RightLeg
        {
            OFFSET -0.000000 -41.345005 0.000000
            CHANNELS 3 Zrotation Xrotation Yrotation
            JOINT RightFoot
            {
                OFFSET -0.000000 -35.500874 0.000000
                CHANNELS 3 Zrotation Xrotation Yrotation
                JOINT RightToeBase
                {
                    OFFSET -0.000000 -5.744446 13.256415
                    CHANNELS 3 Zrotation Xrotation Yrotation
                    End Site
                    {
                        OFFSET -0.000000 0.000000 3.535044
                    }
                }
            }
        }
    }
}
MOTION
Frames:    4
Frame Time:    0.010000
7.018036    82.704834    15.248741    2.472922    1.965934    -2.102926    -8.513933    -12.580821    -1.182046    3.682307    8.586645    -0.518585    1.151886    27.715431    -11.005282    13.567893    -35.117352    -5.348943    12.065784    3.811170    12.288920    -46.796341    24.307077    -9.605549    2.841771    -23.657837    -123.309776    -51.911324    -13.097285    -12.019584    -9.992998    9.228818    3.091329    53.867111    34.483170    5.623270    -11.437120    -30.786196    109.899628    41.351643    -11.695811    10.915656    -3.014909    4.484310    5.707054    -0.851956    1.732931    -0.151134    -0.772623    -2.478156    1.717641    0.603436    -4.877800    -0.870992    -12.949083    -2.073430    -8.985024    2.665214    4.428709    0.252807    9.282213    -3.323292    -5.457417    -0.979167    1.408009    1.729784    
6.898913    82.704857    15.264994    2.488714    1.865878    -2.331050    -8.585308    -12.507724    -1.219657    3.754744    8.396918    -0.552955    1.608552    28.444721    -11.345563    13.065476    -36.591011    -5.695296    12.676545    3.582486    12.157000    -46.044693    23.940674    -10.601439    2.179661    -23.014599    -124.929756    -50.332916    -13.655777    -12.060383    -10.287340    8.440660    3.487167    52.616982    33.374329    5.705061    -11.343680    -31.074703    112.688927    38.968601    -11.451057    11.175306    -2.974719    4.644657    5.651327    -0.831529    1.660213    -0.114392    -0.969075    -2.476728    1.925040    0.548044    -4.957669    -0.791457    -12.891882    -2.016331    -8.856855    2.691340    4.395264    0.336833    9.215128    -3.327206    -5.411245    -0.958566    1.424502    1.693101    
6.782696    82.705894    15.276564    2.508417    1.781458    -2.542031    -8.649372    -12.481664    -1.279207    3.982186    8.217376    -0.617727    1.471391    29.060612    -11.603623    12.991337    -37.622974    -5.888243    12.885795    3.366761    11.904480    -44.828079    23.935186    -11.577959    1.279235    -22.758186    -126.501305    -48.132980    -14.962706    -12.721290    -10.665609    7.890034    3.977019    51.182896    31.859201    6.137432    -11.186356    -31.024908    115.180634    35.685432    -10.901630    11.984012    -2.941900    4.768306    5.594532    -0.819835    1.644152    -0.116230    -0.910349    -2.546233    2.162849    0.518033    -4.835102    -0.747515    -12.843776    -1.976776    -8.712013    2.724377    4.367331    0.377846    9.127510    -3.334844    -5.376960    -0.968839    1.454115    1.710713    
6.657203    82.705971    15.288517    2.521335    1.700711    -2.735382    -8.720769    -12.385678    -1.303850    4.176457    7.835680    -0.641998    1.180820    29.673285    -11.797996    13.345141    -38.229153    -5.885379    13.087103    3.212913    11.443710    -43.885166    22.946537    -12.627511    0.264850    -21.480976    -127.657913    -46.125011    -15.409305    -13.704784    -10.787053    7.408359    4.527947    49.574318    30.454624    6.435925    -10.848766    -31.060839    117.673302    31.684610    -11.095337    11.910491    -2.895642    4.873509    5.620189    -0.793622    1.643802    -0.031191    -1.103581    -2.564932    2.219784    0.509727    -4.964872    -0.736157    -12.769279    -1.936115    -8.568779    2.722507    4.341675    0.416535    9.059409    -3.333491    -5.341390    -0.972548    1.445427    1.717419    
